<svg width="20" height="22" viewBox="0 0 20 22" fill="none" xmlns="http://www.w3.org/2000/svg">
<path d="M0.508456 21.874C0.169469 21.7047 0 21.2815 0 20.8583C0 20.7736 0 20.6043 0 20.5197C0 14.2559 0 7.99209 0 1.81296C0 1.47437 0.0847346 1.22047 0.169469 0.881882C0.254252 0.712563 0.423721 0.543293 0.593239 0.374023C4.23726 4.01376 7.79655 7.6535 11.3558 11.2933C7.71181 14.6791 4.15252 18.2342 0.508456 21.874Z" fill="black"/>
<path d="M14.9151 7.56875C13.8982 8.58452 12.7965 9.60023 11.7796 10.7006C8.38976 7.23016 4.91521 3.7597 1.52539 0.289225C1.52539 0.289225 1.52539 0.20459 1.61012 0.20459C6.0169 2.65929 10.4236 5.11405 14.9151 7.56875Z" fill="black"/>
<path d="M1.52539 21.8738C4.91521 18.4879 8.38976 15.1021 11.7796 11.7163C12.7118 12.6474 13.7287 13.5785 14.8304 14.5942C10.4236 17.049 6.0169 19.5037 1.61012 21.8738H1.52539Z" fill="black"/>
<path d="M15.4239 14.2559C14.3222 13.2402 13.3053 12.2244 12.2036 11.2087C13.3053 10.1083 14.407 9.00787 15.5086 7.90747C15.8476 8.07674 16.1866 8.24606 16.5256 8.49996C17.373 9.00787 18.3053 9.43109 19.1527 9.93895C19.407 10.0236 19.5764 10.1929 19.7459 10.4468C20.0849 10.87 20.0849 11.2933 19.7459 11.7165C19.5764 11.8858 19.407 12.0551 19.1527 12.1398C17.9663 12.9016 16.6951 13.5787 15.4239 14.2559Z" fill="black"/>
</svg>
