<svg width="20" height="25" viewBox="0 0 20 25" fill="none" xmlns="http://www.w3.org/2000/svg">
<path d="M16.7043 13.4189C16.6784 10.3192 19.2462 8.80829 19.3658 8.74078C17.9103 6.62241 15.6543 6.33165 14.859 6.31088C12.9617 6.11361 11.1267 7.44278 10.1598 7.44278C9.17736 7.44278 7.69065 6.33165 6.08444 6.36283C4.02074 6.39395 2.09222 7.58816 1.037 9.43655C-1.14625 13.2112 0.480807 18.7563 2.57567 21.8093C3.62047 23.3046 4.84209 24.9713 6.44313 24.9141C8.00775 24.8518 8.59516 23.9172 10.4821 23.9172C12.3535 23.9172 12.9044 24.9141 14.5367 24.8778C16.2157 24.8518 17.2761 23.3772 18.2846 21.8716C19.4958 20.1582 19.9792 18.4708 20 18.3877C19.9584 18.3617 16.7355 17.1312 16.7043 13.4189ZM13.6218 4.30155C14.4639 3.24757 15.0409 1.81975 14.8798 0.365967C13.6634 0.41786 12.1351 1.20706 11.2618 2.23512C10.4873 3.14373 9.79072 4.62864 9.9727 6.02533C11.3346 6.12396 12.7433 5.33476 13.6218 4.30155Z" fill="black"/>
</svg>
