<svg width="26" height="27" viewBox="0 0 26 27" fill="none" xmlns="http://www.w3.org/2000/svg">
<path d="M14.5847 26.8831C14.5543 26.8831 14.4813 26.8525 14.4509 26.8158C15.3664 26.1982 16.2242 25.4798 17.0028 24.6237C17.9944 23.5261 18.7761 22.3307 19.3936 21.0618H23.8861C23.4146 21.814 22.8306 22.4988 22.2192 23.15C20.1418 25.2413 17.4499 26.5437 14.5847 26.8831ZM24.2997 14.5159H26C25.9331 16.335 25.4586 18.0809 24.6738 19.689H20.0049C20.6193 18.0442 20.957 16.2984 21.0269 14.5159H22.9371M22.9371 13.183H21.0269C20.9235 11.3668 20.5463 9.5538 19.868 7.83551H24.5735C25.4221 9.48344 25.8996 11.2965 26 13.183H24.2997M21.2307 6.50257H19.2567C18.6727 5.33766 17.9244 4.20645 17.0393 3.21276C16.2546 2.35668 15.3664 1.63518 14.4509 1.02067C14.4813 0.983911 14.5178 0.983911 14.5178 0.983911L14.4813 0.883057C17.4134 1.22241 20.1053 2.52483 22.2192 4.61616C22.8002 5.20007 23.3142 5.81466 23.7522 6.50259H22.5629M18.2985 7.83551C19.0498 9.51714 19.4574 11.3301 19.5608 13.1462H13.4958V7.83551H18.2985ZM17.6203 6.4658H13.4958V2.11514C14.3809 2.69606 15.2021 3.3809 15.9504 4.20645C16.5983 4.92489 17.1397 5.67701 17.6203 6.4658ZM14.7915 19.689H13.4593V14.5527H19.5274C19.4574 16.2984 19.0833 18.0442 18.402 19.689H16.1511M16.1511 21.0618H17.7541C17.2461 21.9545 16.6287 22.8106 15.9139 23.5963C15.1626 24.4188 14.3444 25.1403 13.4593 25.7182V21.0618H14.7915M8.17593 6.50257C8.62306 5.71367 9.19792 4.92489 9.81235 4.24005C10.5302 3.45433 11.2815 2.80009 12.1331 2.25276V6.50257H8.17593ZM8.00561 21.0618H12.1331V25.6204C11.2815 25.0701 10.5302 24.3852 9.81235 23.5963C9.1006 22.8443 8.51661 21.9545 8.00561 21.0618ZM8.41623 13.183H6.20495C6.30534 11.3668 6.71596 9.5538 7.46421 7.87227H12.1331V13.183H9.77891M9.77889 14.5527H12.1331V19.689H7.32732C6.64295 18.0809 6.26883 16.2984 6.20495 14.5527H8.41623M11.2085 0.916649V0.950319C11.2085 0.983911 11.248 0.983911 11.2815 0.983911C10.3629 1.5985 9.51124 2.35668 8.72648 3.21276C7.80182 4.20645 7.05359 5.301 6.47566 6.4658H2.24778C2.72532 5.81463 3.2363 5.20004 3.78381 4.61614C5.8278 2.56159 8.41623 1.29276 11.2085 0.916649ZM3.78381 23.15C3.13594 22.4988 2.58843 21.7802 2.11393 21.0251H6.30531C6.95318 22.3306 7.73791 23.526 8.72646 24.59C9.51119 25.4461 10.3629 26.1982 11.2815 26.8157C11.248 26.8157 11.2084 26.8524 11.2084 26.8524C8.41623 26.4764 5.8278 25.2045 3.78381 23.15ZM1.53299 13.1462H0C0.103428 11.2965 0.614406 9.48344 1.42958 7.83551H5.86126C5.18297 9.5538 4.80581 11.3301 4.69934 13.1462H2.85914M2.85914 14.5159H4.69934C4.77235 16.2984 5.10996 18.0442 5.72133 19.689H1.3292C0.544466 18.0809 0.103428 16.335 0 14.5159H1.53299" fill="black"/>
</svg>
