<svg width="75" height="26" viewBox="0 0 75 26" fill="none" xmlns="http://www.w3.org/2000/svg">
<g clip-path="url(#clip0_236_261)">
<path d="M51.5508 6.73871H58.4118L54.9445 25.3741H63.1338L66.6018 6.73871H73.537L74.68 0.551453H52.6945L51.5508 6.66579V6.73871Z" fill="url(#paint0_linear_236_261)"/>
<path d="M15.8873 17.466C15.6661 18.6971 14.8913 19.189 13.4161 19.189H9.69006L10.3171 15.6721H14.0431C15.5183 15.6729 16.1086 16.2706 15.8873 17.466ZM16.9943 8.53398C16.7731 9.72939 15.9616 10.257 14.4856 10.257H11.3131L11.9768 6.74086H15.1493C16.6253 6.74086 17.2156 7.30282 16.9943 8.53398ZM24.0398 18.6264C24.5933 15.848 23.2651 13.4214 20.1661 12.6836C22.8593 12.0509 25.0726 10.0111 25.6253 7.02184C26.4001 2.69633 23.4488 0.551453 18.2476 0.551453H4.93131L0.320312 25.4485H14.0063C19.6868 25.4485 23.2651 22.9869 24.0398 18.6264ZM25.5481 25.4485H33.7373L38.3483 0.551453H30.1591L25.5481 25.4485ZM39.4141 6.74086H46.2751L42.8071 25.4492H50.9963L54.4651 6.74086H61.4003L62.5441 0.551453H40.5578L39.4141 6.74086Z" fill="white"/>
</g>
<defs>
<linearGradient id="paint0_linear_236_261" x1="63.1155" y1="25.3738" x2="63.1155" y2="0.551281" gradientUnits="userSpaceOnUse">
<stop offset="0.00558659" stop-color="#FFB600"/>
<stop offset="1" stop-color="#FFCD00"/>
</linearGradient>
<clipPath id="clip0_236_261">
<rect width="75" height="25" fill="white" transform="translate(0 0.5)"/>
</clipPath>
</defs>
</svg>
