<svg width="28" height="29" viewBox="0 0 28 29" fill="none" xmlns="http://www.w3.org/2000/svg">
<path fill-rule="evenodd" clip-rule="evenodd" d="M14.0013 26.0968C14.0013 26.0968 23.3346 21.4301 23.3346 14.4301V5.09676L14.0013 2.76343L4.66797 5.09676V14.4301C4.66797 21.4301 14.0013 26.0968 14.0013 26.0968Z" stroke="#1A1A1B" stroke-width="1.5" stroke-linecap="round" stroke-linejoin="round"/>
<path fill-rule="evenodd" clip-rule="evenodd" d="M17.5162 10.4995C17.1259 10.109 16.5964 9.88965 16.0443 9.88965C15.4922 9.88965 14.9627 10.109 14.5724 10.4995L14.1713 10.9006L13.7703 10.4995C12.9574 9.68662 11.6394 9.68663 10.8265 10.4995C10.0136 11.3124 10.0136 12.6304 10.8265 13.4433L11.2276 13.8444L14.1713 16.7882L17.1151 13.8444L17.5162 13.4433C17.9067 13.053 18.1261 12.5235 18.1261 11.9714C18.1261 11.4193 17.9067 10.8898 17.5162 10.4995Z" stroke="#FFB700" stroke-linecap="round" stroke-linejoin="round"/>
<path opacity="0.2" fill-rule="evenodd" clip-rule="evenodd" d="M16.0716 9.64098C15.5718 9.40653 14.9992 9.38032 14.48 9.56811C13.9609 9.75591 13.5376 10.1423 13.3034 10.6423L13.0626 11.1559L12.549 10.9151C11.5081 10.4272 10.2687 10.8755 9.78077 11.9164C9.29284 12.9574 9.74114 14.1968 10.7821 14.6847L11.2957 14.9254L15.0652 16.6924L16.8322 12.9228L17.0729 12.4092C17.3074 11.9094 17.3336 11.3368 17.1458 10.8177C16.958 10.2985 16.5716 9.87519 16.0716 9.64098Z" stroke="#FFB700" stroke-linecap="round" stroke-linejoin="round"/>
</svg>
