<svg width="18" height="16" viewBox="0 0 18 16" fill="none" xmlns="http://www.w3.org/2000/svg">
<path d="M5.625 4.25H7.6875M5.625 7.25H7.6875M5.625 10.25H7.6875M10.3125 4.25H12.375M10.3125 7.25H12.375M10.3125 10.25H12.375M15 14.75V3.65C15 2.80992 15 2.38988 14.8365 2.06901C14.6927 1.78677 14.4632 1.5573 14.181 1.41349C13.8601 1.25 13.4401 1.25 12.6 1.25H5.4C4.55992 1.25 4.13988 1.25 3.81901 1.41349C3.53677 1.5573 3.3073 1.78677 3.16349 2.06901C3 2.38988 3 2.80992 3 3.65V14.75M16.5 14.75H1.5" stroke="#535353" stroke-opacity="0.8" stroke-width="1.5" stroke-linecap="round" stroke-linejoin="round"/>
</svg>
