<svg width="21" height="20" viewBox="0 0 21 20" fill="none" xmlns="http://www.w3.org/2000/svg">
<path d="M10.1641 0C7.4456 0 7.1068 0.0131266 6.04292 0.0581323C4.97466 0.110639 4.25207 0.276285 3.61449 0.523815C2.9472 0.775735 2.34287 1.17016 1.84365 1.67958C1.3328 2.17765 0.938157 2.78231 0.687878 3.45043C0.440347 4.08801 0.274701 4.8106 0.222195 5.87886C0.174064 6.94337 0.164062 7.28154 0.164062 10C0.164062 12.7185 0.177189 13.0573 0.222195 14.1211C0.274701 15.1863 0.440347 15.912 0.687878 16.5496C0.939797 17.2169 1.33422 17.8212 1.84365 18.3204C2.34171 18.8313 2.94637 19.2259 3.61449 19.4762C4.25207 19.7206 4.97779 19.8894 6.04292 19.9419C7.10743 19.99 7.4456 20 10.1641 20C12.8825 20 13.2213 19.9869 14.2852 19.9419C15.3503 19.8894 16.076 19.72 16.7136 19.4762C17.3809 19.2243 17.9852 18.8298 18.4845 18.3204C18.996 17.8229 19.3907 17.2181 19.6402 16.5496C19.8847 15.912 20.0534 15.1863 20.1059 14.1211C20.1541 13.0566 20.1641 12.7185 20.1641 10C20.1641 7.28154 20.1509 6.94274 20.1059 5.87886C20.0534 4.81373 19.884 4.08426 19.6402 3.45043C19.3883 2.78314 18.9939 2.17881 18.4845 1.67958C17.987 1.16808 17.3821 0.773334 16.7136 0.523815C16.076 0.276285 15.3503 0.110639 14.2852 0.0581323C13.2207 0.0100013 12.8825 0 10.1641 0ZM10.1641 1.80023C12.8338 1.80023 13.1526 1.81335 14.2077 1.85836C15.1809 1.90399 15.711 2.06651 16.0629 2.20403C16.498 2.36462 16.8918 2.62023 17.2156 2.95224C17.547 3.27468 17.8017 3.66755 17.9607 4.10176C18.0982 4.45368 18.2607 4.98375 18.3063 5.95699C18.3513 7.01213 18.3645 7.33154 18.3645 10.0006C18.3645 12.6697 18.3513 12.9891 18.3026 14.0443C18.2501 15.0175 18.0876 15.5476 17.9507 15.8995C17.7613 16.3689 17.55 16.6971 17.2012 17.0521C16.8763 17.3821 16.4828 17.6364 16.0485 17.7972C15.701 17.9347 15.1634 18.0973 14.1864 18.1429C13.1257 18.1879 12.8131 18.201 10.1366 18.201C7.45997 18.201 7.14806 18.1879 6.08605 18.1391C5.11281 18.0866 4.57586 17.9241 4.22394 17.7872C3.74889 17.5978 3.42322 17.3865 3.07443 17.0378C2.72251 16.6858 2.49873 16.3508 2.32621 15.8851C2.18619 15.5376 2.02617 15 1.97429 14.023C1.93866 12.9747 1.92178 12.6497 1.92178 9.98562C1.92178 7.32279 1.93866 6.99712 1.97429 5.93574C2.02617 4.95875 2.18619 4.42243 2.32621 4.07363C2.49873 3.59795 2.72313 3.27291 3.07443 2.92099C3.42259 2.57282 3.74889 2.34779 4.22394 2.17152C4.57586 2.03463 5.09968 1.87211 6.07668 1.82335C7.13743 1.78522 7.44997 1.77147 10.1228 1.77147L10.1641 1.80023ZM10.1641 4.86748C9.48982 4.86724 8.82213 4.99986 8.19916 5.25777C7.57619 5.51567 7.01015 5.89382 6.53339 6.37058C6.05663 6.84734 5.67849 7.41338 5.42058 8.03635C5.16267 8.65932 5.03005 9.32701 5.0303 10.0013C5.03005 10.6755 5.16267 11.3432 5.42058 11.9661C5.67849 12.5891 6.05663 13.1552 6.53339 13.6319C7.01015 14.1087 7.57619 14.4868 8.19916 14.7447C8.82213 15.0026 9.48982 15.1353 10.1641 15.135C10.8383 15.1353 11.506 15.0026 12.129 14.7447C12.7519 14.4868 13.318 14.1087 13.7947 13.6319C14.2715 13.1552 14.6496 12.5891 14.9075 11.9661C15.1655 11.3432 15.2981 10.6755 15.2978 10.0013C15.2981 9.32701 15.1655 8.65932 14.9075 8.03635C14.6496 7.41338 14.2715 6.84734 13.7947 6.37058C13.318 5.89382 12.7519 5.51567 12.129 5.25777C11.506 4.99986 10.8383 4.86724 10.1641 4.86748ZM10.1641 13.3348C8.32133 13.3348 6.83052 11.844 6.83052 10.0013C6.83052 8.15852 8.32133 6.66771 10.1641 6.66771C12.0068 6.66771 13.4976 8.15852 13.4976 10.0013C13.4976 11.844 12.0068 13.3348 10.1641 13.3348ZM16.7049 4.66246C16.7045 4.98104 16.5778 5.28646 16.3524 5.51161C16.127 5.73676 15.8214 5.86323 15.5029 5.86323C15.3453 5.86323 15.1893 5.83221 15.0438 5.77192C14.8983 5.71164 14.766 5.62329 14.6547 5.5119C14.5433 5.40051 14.4549 5.26828 14.3946 5.12275C14.3344 4.97721 14.3033 4.82123 14.3033 4.66371C14.3033 4.50618 14.3344 4.3502 14.3946 4.20467C14.4549 4.05914 14.5433 3.9269 14.6547 3.81552C14.766 3.70413 14.8983 3.61577 15.0438 3.55549C15.1893 3.49521 15.3453 3.46418 15.5029 3.46418C16.1636 3.46418 16.7049 4.00175 16.7049 4.66246Z" fill="white"/>
</svg>
